<mxfile host="www.draw.io" modified="2020-02-27T09:23:22.269Z" agent="Mozilla/5.0 (Windows NT 10.0; Win64; x64) AppleWebKit/537.36 (KHTML, like Gecko) Chrome/80.0.3987.116 Safari/537.36" etag="GqChbKkGn80XxxNxMVR1" version="12.7.8" type="github">
  <diagram id="SBKz94i7xGmDobZmnykn" name="Page-1">
    <mxGraphModel dx="782" dy="386" grid="1" gridSize="10" guides="1" tooltips="1" connect="1" arrows="1" fold="1" page="1" pageScale="1" pageWidth="850" pageHeight="1100" background="none" backgroundImage="{&quot;src&quot;:&quot;data:image/jpeg;base64,/9j/4AAQSkZJRgABAQAAAQABAAD/2wCEAAkGBxITEhUTExMVFRUXFRUaFxcVFxgXFxgYGBcXFxUVGBUaHSggGBolHRcXITEhJSkrLi4uFx8zODMtNygtLisBCgoKDg0OGxAQGy0mICUtLS0vLS0tLy0tLS0vLS0tLS0vLS8tLS0vLS0vLS8tLy0tLS0tLS0tLS0tLS4tLS0vLf/AABEIAOkA2AMBEQACEQEDEQH/xAAbAAEBAQEBAQEBAAAAAAAAAAAAAQIDBAUIB//EADMQAAIBAgQEBAYCAgMBAQAAAAABAhEhMUFR8AMSYXGBkaHBBBMisdHhBfEGUiMyYkIU/8QAGgEBAQEBAQEBAAAAAAAAAAAAAAECAwQHBf/EAC4RAAIBAgQEBgMBAQEBAQAAAAABEQIhMUFR8AMSYXGBkaGxweEi0fETMgRCI//aAAwDAQACEQMRAD8A/px8yfQ/WKgom4IMgCAAAApoBI1SuayV9sjsQwUAAAAANQClyBCNAAAgAALABACoAABwCtlqqdTlhKCGQAAUFLdMEMgAFNWYAtHUBBKXCBCAAFaK6XTio/QkhAAgAAQFSN008zgNwQyAAWhYcwCEAERiAAAAAAAQFNWnoCEnUAQAQFTNqqBAoOXNL+ghkARLhApcHDAoFS2p/vkJISLSAJBbeJpKmOu8SXISLSUoagEIC0LyvEAJ3lgC09AJKhqunlcETkGcbFDDjIAWuCEAIAUFNYIChOVtSJIQAAqKrXm+85+AQjBUzdNUSsZXl17kaIZzKCIFKpaBCQAMbgrLVGQRGHMwChPIANAVLzTj6Lf7AJFgQyCm001D9sSEMopSxaQKBppSAG011BDIBQajKn7uborVNUpedyNSSplsooIzYBWsAQzGYKW0b3+wA2plAhGCplpqdLlCAmWmt04BohluQUuQISAaVN6fk608ix6+X79COSHOZdykIAECtlqqbdwiEBS5SARuQQAEALNoAEgAAABKQBNoAIAXoCs1Unnv4CIZm8gqLSlVUk3AyDLUlLgIIiwBCQAG7gpq7XbfiAxU03NKheZF1IZKaSZ0ppq5ZWGf36ElSQyvxd0UUJEXYIQASClmMAQmQKWEBQReABYEIAQAqTbgAJgFSbsgUt6ZTXmQhlFAkFRUpAKphgB2sCGYBTULHf2Aw0psCEazAJABbApqGk2unqQIynZopCApVAIS8AAFZXGQIR9AVstTbgChrlXKmSQZ7FLS33RvkXKmne8rQk3MnIpUjSpbwATFLhyGGxU5cgqXSppUtKYleO5RJIzLxKGVuO+ZBUOttRltCCpV77w1N008ydU30eL7a9tEG4Ic4kpeV40Nf5Vql1NOESUISpp4muFW6bpLPG4akTdcqE4tfO+ZKNdBSoEFccJOqpKlSw8A/J+n6LU07NQ/T69ugMnIoEAqKom4Dy3nvyK3zQoy87u/x4ANCpZ7/oIZUq4BcbgEAAKbV8fv+EBlMpCOMgAgUswCEl4AqKmk7gIJauwAmADU1YbUX9L44EBJlXe/338wKEgoNYzb6IXmy0/ODNc9VP4vK3e8w8nDELElDPLVHMvcSg4tYlq4dVH/AEt/PgE08ARrTLMAy1oygWbBZLD81N8SlJJpY9Z/nYiZk5lL+DdnHLLt/Y6ZkCZFW0oRYIZACbTlAtCpN4AJFVMve/2CGWwVlcpQCCAVvoWqpVXiN4/yERKAguZtJYlNR6q2/U6UQqpqVtrPMy+hk5wp1NBsOqUlAIZB0brfmvul8j1VVf6Vc7r/ACx8sIc2eiiFhJhKFEWMUOEQphb6fJo02qZ/3T8HR1UKmKZjwzjPwaXTJXmQ5uVSp9sMniaVapdn0usnjq7emQiTBwbWCNFit9jpw6Xj464bnyMthX75byCitQrNYaP9PPOXoXAhyVlJQE0kAWFE5gDuCGWoxBYunc3RW6b0zORGpBMVby3+wCWWKKGg1DgEJOgAADjIFTubVXLVzL13/SRYSYrabmF8BAwikAKaulKBDABQaSrojpSlU7tKN+fv3JgShmIUp+W18rqDaT5eldOyxxPQlxKuD0nSdFjj4dtTNlUZT7+m9TnTUkk0nlOD6aZ3xmSskjFaScIqLXXLeJvnVSXNl64Zxp7TJI0NcSFM9DfH4TpcpyrLqvDXXLxJS5JN19/zvQxxKqa2qs8GvmXrplGkRUoI4+v9XI+HytS7Ob+ausuvyWZJQw6XzcsXLIInmgQitiAIhwwVlcTZ/ADRaqXS4YTkhIuAQAApewIQFRU2sAVUre28TdKpdUV26/O/sjnIiRlUyyyH/Rak3VbPAiDVCVU8tXKypyg0HTAk09KXOtVkqWoffLy9TK1Ms5PlyNXNctq3vWngdeSlcPnc3mPDXfhhOZvAlJ6U650eXYtfErUWh4zm08u2gSRaL8fsvLQ0p0t8z8a9MSSyxjR2dezpjhibpodNU0ucrOHdWiby72h+wbnEw1R4pnGqlUVSmnG93wuWZQpmyOiPyq375+ZZyRFQyuVxO+oualTA6VOhfisvXDs/C8XuRSZbOVTu3SVASm435gMOG7Ipd3/Jqeab26+WMb7kMnIpam+a0AEcPAEIC0N8kuE5vvEkkMPEpaGnT+PNvbBCAqCbwjHf0CqTNKutX32+iQiVJzLlguYYcZab7byAIwKWNpPkmLEzLFVZeHT/AKVJf3w+A3CGBIdDtkMSEvHfe/0DSp1rup0SpjPme317WIT3M4W13vQoTInD3u/6Aiq56Y+uBrh0qtOWlEWeeuF/kjcGuKsMrYbxVMzf/opps0osrdfSU1dO/VkpbMHCbdd5mxEtHLKl9+3jYjFBHK4YxAbwj7+9oAn/AC5sykMgAFKnAAYIQFLFpBCJABgrZqqpty7kIZwKWhUpzBBOYLUqdr4IFXXA0kv/AKcJ739k7Bq7LVS6uI++ken0MhG/7JQnW4nze/QOxERRnh6/oBrQV0qJpw+fJbzCeptZ9sK7Z3WDeUYT8Y43tfqzJFpl4V+xmlpPlaceE+3t7FepZK+iy8C10LmtZZX0zb35SROxFWnSpml18szCnTzyl9VhdWuVxIoq4+f6xJHD5rNrq8n4TPh7C8CKbwu8bepqmmupt03eNsIz34BtLEljlFLV3e28OxbmTMFNG5qqVsvbxfsSyImZpqcOmbMNBIU0puHb2nqVsEukBQQ2pBA22AQF3c0om3qBQjpaBW6m3U63hOfVv0x0JEDIspU3ePjG/oZihOVX+GtvznyEkJZuPsAibKEyqq6nLeRIHUTVS+YWdjVa5+1TpLqblr2nenaCYFjLGufjvA1w+Kqm3xG72127EajAjVMsjNVPIr03h52z0LMiTvi/e4rbdUNt+994ZhYBPfuFVSnEaLxlXy9VgIIt7RFpKWT2rRvAGlK1PV5am6eInTyeTeWuF1bFX7EavIaxt2LVSpcU5Skr4dr64x5qEJbKuWfsYT4dSilNYZz6W+i3zJFZGKFVV+Kz1tffhqVxiWCxr/T3bxOnCpVSqVVlGOjWE97qbxKI3oZRyTh7yKGiNRfclC7b1LS6Zuptt/RLkMTaClRumYcePnvAjBGyhEVrgDEEIrAFBpNG6aqIipTvc+hIZkwilHUGnFrI7VcOqmzWGnz5PG5lNMj7+5mq6V7ZKZaKiNUMtcud+m/uRibcm9OlqWO9VdfEUwtUoi04JpLAykkZqvGvp+TjzUpWxn0/Zq5uUcEsaa167R6OJw+aKabuL3mbTb9avEynFzLl0XfQxVWmohQ881/MIv7FSJJHOunl02t3KnJVHyNU0Nw8vf4wxI2RJ+5FRU5i2envp6YiQ010I6eJw4btOH0WUyMxVdtoIqejNqqqlzQ7vb3hoI1CeVF44imrlTpaXjj5/GeCI1mRsxVVzYvJfwqFByPISWCbsjfDpr4j5KL54/twg2ldmTnYoICpmk0lYgRaVK/m53AYJEYooCvMAIiUuAEi00VPD9e4kIK+e9N2IEVNPHECLJQ4cz5Bmo9cKaeJ3oShf6WUQreNvHPAj6EkjFdKSwx7/wAft5FRavW3fpoVOtpKqqEtX007e+RLZIqd8Kmqakqo5eb5yyjvn3JFsRCXTeo4dcOEt62uo1WHgGixlol934GqeJM8tK7u78Lz5XDWpmUUvx+znxOHTRdPwd8euZU2yzlWnga4nE5oqqyS3N+pEoLOWHLp6603gb4nEU0vg2tdLXWL4/HkSx5jNcq29KnLmxpTt6T4uNSxmR+Ripa23v4KRszVVMFSDK3aPHe8iCIoTVVv6GVSLTXUqYxWm/QNBMU1RdYzjv1t6SGg0Wumaml+gjJzSnAoJF4YBAU0pV0AG1ICCluwLX0OnM6lGazvMZ/vzJBKGOVrEoJMXA3voVWp3P8AAGKklgwi13lXU2qrcr8ptOsYLeBk3FXtSujWPmd6KOWqKWubRrGNOb2d/Yjcq4WNlfp7IL8qvxphu9l7Lvph2dmCxJb1Zj8MGs3jZRpbDVfIuOHDv4Kprg8J436QpneWNxUyNKm/QxUqFT13hfzkqmRya2M/5Q/ycL22r/cjm0JTf5M8vLM775+nsWZLJ/bfc6V1Nq6y7OJ7KdsiJXeRl1vGnBeW9RASXYiVNStZ57SLdEMwsgVaFTdUUZSMLkMxf9lNKNqnRUJ8PnTuvPutvPQzN4Msw3VVjctkGyVOSoBQsQWSv47wN10//pEZ7wj0IsCUObUOGUhLA0t73idKU4s4+Z36kYpqTkdL/ITOBOYLiRGvmILUswlCWe99wKX3kXlfNGfnhp5CbCrrXf6LNVVXM++9PL0JaIKpNOvqaXEqoq5njMp4v1t6dhCagQyrgOFZ0888s+X3g7B5wdKKru30VnTyuenlpqrqabfRWcPwv1UY42uYukicryWHhjnQnJWr0pQrrBY5xn2URCyEokW0ra473iY4dVdFH4vOU927aX6xWk2Zccji+G5VFMTvfkanMlNonJbHyv2m4kvLiXkbTqz6Lf1eUJIYmHJRJYexeJQ7WXhmEy+O1qjUcqV0u2NnmvYmJk5zCa3v18Cl3vQ3CSbTV9I/q+SDLeBFCptj8R2+fAuZKmeZTrj/AEQESlubFZU6XNUt0NVrwzW/UmNiGGoKQQAZAKClwxATCqgFqbVUuHhplvy7kgJ5b7rQqrdL5ad9VOAibhLTfUqoduXG/wDfjuupJ1NxWr9NLXOtFMQ6nrZrS158lo7WI+gab0vXRla4tbybcrJ4W7ysndxgLIkZLGhijiU8zqa99PHedg08AstfN07GqeZpNRK8XHb4l+AOsOI6UdHq3fOuW8D1cPj1008tUNZtqVjOK8LPVYGHSpJJaV63w/JK0kvwmW73/wCcsonxyuwupGnj60b8qmXTVUuZKZtLTeGk5dHLXaGXCxlSwds/06HGmtJKqyxz62caqbe5qMjGf4OL5qaoeK0+N4elyNK2K/s3TND/ACWPlPX50fYmOBKLtv0JFFsvWf1pjYtyOOjqZq4dKf4uROpDkknJoMtSh2IU0nS009/3wBk53gpUVNzCALNWOQFAqU3CBDOQKtTdP4rmTW/gj0EWKKuXD+9HvuGpDJXE2chFpappUzS6radQRoy6YUiSrFaG0k6lS7IZBr03Qrp1WG4+vAhEYpwbS/n9Ky1tQ3zOqnl3aeuXyyRDkGVCbpy303oXqbVN/uh6aVw6W03P78Wl31vbMxcsoLVX3WlcC1cKlXTV+sd3Eu24CbK1p40w60saqTlunxjC0TEJrvh5XcXUnNknjngR8Rr8aKpnNSvRRhdZyvJWM2ZdVaz39jjVzULkaTi63p0foVQ7h0a653xvii1cldExeXMvG+Kt5pYYwLplm3Zvrd4vAvFdUKqq8zdq7w101+AowRlUozCdH+TnGfjemjlYW8mWjnVSk0kWQZaqKF3LTf8AFv8AX13IalTd8zrXyqVC989VF/jIikjObSmYt6fzDqUCzU732zyuBQKh0uGv5+hJXHNXVjrVQv8Aum6Ue3n8ETyM9jhGVJe4JnexQkWlczgMU1sXlabpqsyToCJaMpV59DVPKvyd+hGWt776m5muanbX0n9656kysJrtvPsOLTExEZdevZx4ZBMNB0ulqnHS078MRMlcbV63NvhrkVbxm+7enmrEm8CMavdOtldFoo560px6WWtldLrbTqG4RmKrbf6OHDpdVXKlM5Ldu+WZpuLnWKteiprn5Ynsop/D8oSWt58le+D0lKzObdw+K3j3ri732hV/6a6oVWOM4u97d1l7TdyJYEaSa91h2FVFNPEXXGVEdsXPg4foltGZ44nDitqqzft3tkzSwJj6dyX4lLjG3fvvDS9rgw9KMlTbSpafr6d8I8cQtTJyu4Rou6+1DpjPMojOPSMPYyGKoTnfp9QA3YlVX4xvf2VK4bI6uZS3gIgtG96HRKuvHHwm0eO5JZEOdtLe9/DfiUtd3NzaU4jvu/QgXrf9lV1Kd74+M5b7giWn9GFTdcj8cI69uvjYs6hiqU7eFwi1+xXVaUotHddd9OpIMt1MVN1OXiXAsVU1RQ64Sxm1w3Bpww9dDpVwGmnHe9vP398lnmJKFt36kr4Spo5m/vr9OMvCp3KoW8S08J1UYXmP7543DcMkZZmaa4fNl/dqcA0WNe3gbpfEpyhYTGvR2x0wxVyODB503vobOkEtV6+56+HRwmkuZeT66uJ0jtqc23oWSebSf9UyN1qptOppPtpETbXpPSxFGRlzfhpTe0cauLVa9tItL6e3aFaxpJFjHt0v+jdPDdN5U4Jz+1ft8EbNOevj49Mzo+NLT4ivmu7xh4zfCI8icuhzctKHmqrczSljO5/Xc2lqVXru+JulupNTj0m93prPhqR2KmqO1/stS0ujlcUy8ui1wjzjUOZxMUocHTVS7q73voamSUMcru4/QFTU2tkAZxKaS3+zpTQ5h2jsvXdvFmWxyOunc1/lVzNO0a6CVAkvTJiui0TdZPLzi/10CZk5qzb3uCm0s/77o70U8qdafpfunfxv8RlubGa003ocVVy5LemWW8DUSKF5Fffr9EkrjRddDVXDVNCh3eXlvbCcsi19N3MKX+Si2XhpM/GN0XobnPJYab3Y78TjNrlpwwhqPbr3wMKnNmEjgknVEwjZqjb3idIr4tUUvw6x7uCWpVxFrDa1qXhumeWp465TjPbX+Ec4jl/v3HIsG/HLv191cSYPO5k0adHu1OrOtSpq/lo6vVdiXRYPxNcKrmbTU6fXh9hm3bLOzpTbPQ3/AJLDOziPhXyatGeZjEy5UeVM95HN8V01N2jPzy0fk+mRYlGZb34HGvlb/FQvnrbph17mkVUz/ruap/zwrtj4d/6S+RmPehzoeUx5999TTLf0NTXjF43tksOnqJUcmufj2n2HUUzrf8l5aUuZO/pfLduoIc4XLhvf8KREoUXn7DNNXOlVPNVv6+4zInCHMOdxbFLLSV6ade4gKXnbwp1NKt1RraOkLNxu1xECeO2Z4v8A1D8c92wCwImYVUS9d765Fg1RW9d+R0VNLajC84e+F1E/JCSQrpVpv11w9vEJlpdfYvI+alZvLp4a6r9EmxmmpiKU/wAvvoU0oW9qG6eDzUSsdIywx16IOqGZoc3S1dLDyRZK46e+Oht8PmUUr3x0j5w9lJjE1F0y+z8TtRUqV+VM94fit9zLU4FjJ5YL39xw+JV/83VOEdZ9fvW5pHI8cczOha5e9jXM6U6fm36ZIm4QphuG9zuwZrmyy8js+Io5Ml4eP9mDMZi1ifg0oV29r2z16C5qUX+nodaqKk26sdG8td30wZE0Ycnv7HCqup38Pq2RqEapbDSup0a/CWtJtfp/fW5MzNKU67wOToVKp5ph32vDUsyRojphKreX73cskMy3Zb8wdIweSu/ttHoo4PEtTSvyeWqfftuDLqRhPt7HJNN3S9l4/uUULUiTX5YR6PqXoVxtVbxZp8NOjmp9u7e9IJN4ZYe5vhxj1z8/PXDuRklTLfoSvllOlRn30y03cIiW2YSlSsevxr0WpTeOHc7OK01R3cK2m5tpGcwxM3166qphc0TM5w7qc+mWJbFr7te5ZqqVsLtfPnr0II6b6dhTd8jdnNuuKycB6ki6Z5ab0M0VOi6eWmv8xK7muZUwpbM6PiU00xEWzvp5T08ZykSzThSl3W70/qx1fC5IabmG8lOHaLY4+JmZN8GSTWGt7976nb/zcTh8OumWng73731SmLdpJWm0c3jVfTjT7Hnaqpqmj8cY10cvX7ssDVmr3OJ4I1OhWafLgvbfuS4JkUtfDtvE6c/M5Vn03iSIKmrZY3/R0pdLhO0Tf63KI5LV4+OqLzVqrnXfVb6ZkhYEcrvriR8R81VpnG3tp8CLGkkaS4TX5Y64LxxWGEPQXLNdcFa3ib4lKptzf8q1s3fw+XgpIu2Jz32/RwUPP6+jQUWYp4ddV0ito0nXva53VS4jxva+O/36ZiDKdMrnKmrks6brv/N3NYmpa9PM61pNKvOE4ee/bNRBlaFr9n+MRzQ1ChQ7emKvfD5xYgy1WlO3iYqSr5VSr4dZ63y1LhMkSMJPN+HfeGJTUJJe/wB6nThV08NX6Sr95XXQy1JZNWw79OqN11UKIjvjbqv1HaSJMivbf3xM0/k3Snjopbv3Uu/jhBXYQjXTtqOHQq024nTN7nHsn1NwXlzth98Kmlw2qeZpWXbHCcNMfNyScixVaVf5XszVNKrVKrc5dV52fl6OQ3EwX5Txtev93Oj/APNU/wArXnHzTveH0y6k58jnS1fSh5Uop5lllGE/G+++hKtHNOqjCVJbM3zK1MVTfU9H+lLVPJio79cMfF4ZK5mHeTz/ADo/7R80eVUtZGpL82P+0fNGuSXve9RI+dH/AGXmiRVg5gWNx+IjhzK//pHooqlf5tO+e9xkZazJ81L/AOktLrwMujiUWcrNfGi8fgSmHxo3rKNe6NNVUtqrHx/X68ckrI3Cca3lHDVfmx14XAmr8lFpVsV44Yz5mXVawfxEU7SjRaNezFVVfDqfL/ynll1t7p6dgkniZlxY0rzR9MDFdLVHNET0V1OUfP8AKneCrjwo1WOV6oJ0f5Onlva+/VLyF5mTD4sc5LzRwqorptUr79DUp4GofERduaOFF9SO/Dqq4kUNZNLLfVfFjLhXL86Fvqi/FP38SqmmmG0nrmpuvu/gJkfOh/svFr0uVU01fjfs1pp99hJj5kf9ljqjh/m3eM93tjBqSriRearhija4VVcrlc4b9cycyRp8eOFY+aridG3/AMqnDG18d4zKzknWSy4sXX6lauaqWvhuuYm09/HPdpInBHxI0X1R8JJ+Zh8JqlOLdHMNPP78y81yLixVKyi0snJfklNFVLTqSaWTtj2c7jIrc4EXEjnKPmrIzTw5X5faWe/DGEG9CfOj/svNGeVzPrr6fBZOkeJHGsX4rwtn+jvRwq45lTOWmTatnKyxthiZbRqHxELrniu772sd+HVM0NxGqc52t6631gy1mYlxo6q//pb0PPxJX/y7+HbDG0Y4eJpHVcaNpcy81rkeulVtU8a/lLxwXnMTrg0Ycf8AJzfFgm/qVsaNe55qqP8AKp2mMY691hlDzixqZR+UPh/heeShFJylZKyq6WVdXh3Poss/MOi/juJyRmuFJwlSklBtXk4JVSs3JUSxdVqhzdQdZ/w3HXL/AMHE+pSaS4cm0ovllVUqqOmOq1RObqDrwf8AH+NKHzOSMIuSjH5so8JzlSMqQjNpytKLtjVUqOcpj4j+B+IhJxl8Nxa/MfDtwptPiJtckZKNJSs7IcwNz/x/jxpz8LkrFus04pUlxI8km19M68Kf0u/0jmIfN5FovIsgci0XkJYHItF5CWByLReQlgci0XkJYHItF5CWByLReQlgci0XkJYHItF5CWByLReQkDkWi8hLA5FovISwORaLyEsDlWiEsDkWiEsBRWiEsDkWiADitEJYJyx0QlgUj09BcFUFohLB04fEcWpRdJRaaejTqn5ogPty/wAmnWq4cI0f0KOEYPkT4btzNUgrpxu272pIKeXg/wArGMYwXB+mEoyhWb5k4SlOHNJRXMlLicSqoqqaw5UxAPX8H/k/E4b4sow+vit1b4k/l3gofVwE1HiNXcW8G63ohyg9L/zOdZNfD8NOanCf1cS/BnPicSXCVGuV83Fn9aulTOrc5QfP/lP5z53A4Xw/yoxhwOb5NJNygpznKcW2vqT5oY4fKVMWipQD5BSAAAAAAAAAAAAAAAAAAHv/AI3+VlwU48nDmm604kVJYUaSdrtcOV634UPFBT0x/nrU/wDzfDPSvDrSyVulq06LS8gHTjf5G53l8PwJOkVWUW5Wbdat43d+ita6Ac5fz1eJLiP4fgNycW041j9Kasm7VrV6tV6CAa4X+QuLg48HhRcW78NcjkndJtYpPlarjy0dU2IBqX+T8TlUPl8JpKi5lKTX/F8qtebHlbxxtXOqAdZf5dxm2/l8O6pd8R9q1nfF1r/2+lPBCAfG+P8AinxeJLiNJOVLJt/9YqKu223RKreLqUh5wAAAAAAAAAAAAAAAAAAAAAAAAAAAAAAAAAAAAAAAD//Z&quot;,&quot;width&quot;:&quot;&quot;,&quot;height&quot;:&quot;&quot;}" math="0" shadow="1">
      <root>
        <mxCell id="0" />
        <mxCell id="1" parent="0" />
        <mxCell id="cDTqUk9trkiNBCz85XYn-1" value="" style="whiteSpace=wrap;html=1;aspect=fixed;fillColor=#ffcccc;strokeColor=#36393d;" parent="1" vertex="1">
          <mxGeometry x="190" y="30" width="440" height="440" as="geometry" />
        </mxCell>
        <mxCell id="aCSpvU0KoMF01jWwZhny-9" style="edgeStyle=orthogonalEdgeStyle;rounded=0;orthogonalLoop=1;jettySize=auto;html=1;exitX=0.5;exitY=1;exitDx=0;exitDy=0;fontSize=18;" parent="1" source="cDTqUk9trkiNBCz85XYn-1" target="cDTqUk9trkiNBCz85XYn-1" edge="1">
          <mxGeometry relative="1" as="geometry" />
        </mxCell>
        <mxCell id="aCSpvU0KoMF01jWwZhny-10" style="edgeStyle=orthogonalEdgeStyle;rounded=0;orthogonalLoop=1;jettySize=auto;html=1;fontSize=18;" parent="1" source="cDTqUk9trkiNBCz85XYn-1" target="cDTqUk9trkiNBCz85XYn-1" edge="1">
          <mxGeometry relative="1" as="geometry" />
        </mxCell>
        <mxCell id="nbhP4wo421aQO4ASPi2J-6" value="username" style="text;html=1;strokeColor=none;fillColor=none;align=center;verticalAlign=middle;whiteSpace=wrap;rounded=0;fontSize=18;" vertex="1" parent="1">
          <mxGeometry x="210" y="90" width="120" height="40" as="geometry" />
        </mxCell>
        <mxCell id="nbhP4wo421aQO4ASPi2J-8" value="Enter password" style="rounded=0;whiteSpace=wrap;html=1;strokeColor=#FF3333;strokeWidth=8;fontSize=18;" vertex="1" parent="1">
          <mxGeometry x="230" y="270" width="250" height="30" as="geometry" />
        </mxCell>
        <mxCell id="nbhP4wo421aQO4ASPi2J-13" value="password" style="text;html=1;strokeColor=none;fillColor=none;align=center;verticalAlign=middle;whiteSpace=wrap;rounded=0;fontSize=18;" vertex="1" parent="1">
          <mxGeometry x="210" y="210" width="120" height="30" as="geometry" />
        </mxCell>
        <mxCell id="nbhP4wo421aQO4ASPi2J-18" value="Enter your username" style="rounded=0;whiteSpace=wrap;html=1;strokeColor=#FF3333;strokeWidth=8;fontSize=18;" vertex="1" parent="1">
          <mxGeometry x="230" y="150" width="250" height="30" as="geometry" />
        </mxCell>
        <mxCell id="nbhP4wo421aQO4ASPi2J-20" value="Sign in to Your Account" style="text;align=center;fontStyle=1;verticalAlign=middle;spacingLeft=3;spacingRight=3;strokeColor=none;rotatable=0;points=[[0,0.5],[1,0.5]];portConstraint=eastwest;fontSize=18;" vertex="1" parent="1">
          <mxGeometry x="260" y="44" width="210" height="26" as="geometry" />
        </mxCell>
        <mxCell id="nbhP4wo421aQO4ASPi2J-21" value="No account?create account" style="text;html=1;strokeColor=none;fillColor=none;align=center;verticalAlign=middle;whiteSpace=wrap;rounded=0;fontSize=18;" vertex="1" parent="1">
          <mxGeometry x="230" y="360" width="240" height="40" as="geometry" />
        </mxCell>
        <mxCell id="nbhP4wo421aQO4ASPi2J-22" value="SIGNIN" style="rounded=0;whiteSpace=wrap;html=1;strokeColor=#FF3333;strokeWidth=8;fontSize=18;" vertex="1" parent="1">
          <mxGeometry x="480" y="350" width="120" height="60" as="geometry" />
        </mxCell>
      </root>
    </mxGraphModel>
  </diagram>
</mxfile>
